<svg xmlns="http://www.w3.org/2000/svg" viewBox="0 0 15.95 13.67"><defs><style>.cls-1{fill:#50dcff;}</style></defs><g id="Layer_2" data-name="Layer 2"><g id="checkmark"><g id="Layer_2-2" data-name="Layer 2"><g id="Layer_1-2" data-name="Layer 1-2"><path class="cls-1" d="M15.63,2.66,7.39,13.09h0a1.6,1.6,0,0,1-.26.26h0a1.61,1.61,0,0,1-.45.24H6.56a1.5,1.5,0,0,1-.47.08h0a1.61,1.61,0,0,1-.48-.08H5.49A2,2,0,0,1,5,13.35H5l-.26-.26h0L.3,7.44A1.71,1.71,0,0,1,.72,5.08a1.7,1.7,0,0,1,2.22.26L6.07,9.29,13,.56a1.69,1.69,0,0,1,2.64,2.1Z"/></g></g></g></g></svg>