<svg id="checkmark" data-name="checkmark" xmlns="http://www.w3.org/2000/svg" viewBox="0 0 30 30"><defs><style>.cls-1{fill:#50dcff;}</style></defs><g id="Layer_2" data-name="Layer 2"><g id="Layer_1-2" data-name="Layer 1"><path class="cls-1" d="M15,0A15,15,0,1,0,30,15,15,15,0,0,0,15,0Zm7.63,11.57L14.39,22v0a2.13,2.13,0,0,1-.26.26h0a1.63,1.63,0,0,1-.45.24l-.12,0a1.5,1.5,0,0,1-.47.08h0a1.51,1.51,0,0,1-.48-.08l-.12,0a1.63,1.63,0,0,1-.45-.24h0a2.13,2.13,0,0,1-.26-.26v0L7.3,16.35a1.69,1.69,0,0,1,2.64-2.1l3.13,3.95L20,9.47a1.69,1.69,0,0,1,2.64,2.1Z"/></g></g></svg>