<svg width="640" height="640" viewBox="0 0 640 640" fill="none" xmlns="http://www.w3.org/2000/svg">
<g id="hero-top">
<path id="top" fill-rule="evenodd" clip-rule="evenodd" d="M127.5 419C123.91 419 121 421.91 121 425.5V528.5C121 532.09 123.91 535 127.5 535C131.09 535 134 532.09 134 528.5V425.5C134 421.91 131.09 419 127.5 419ZM458 473.5C458 464.387 465.387 457 474.5 457C483.613 457 491 464.387 491 473.5V598.5C491 607.613 483.613 615 474.5 615C465.387 615 458 607.613 458 598.5V473.5ZM67 474C67 466.268 73.268 460 81 460C88.732 460 95 466.268 95 474V535C95 542.732 88.732 549 81 549C73.268 549 67 542.732 67 535V474Z" fill="#C4C4C4"/>
</g>
</svg>
