<svg viewBox="0 0 640 640" fill="none" class="z0">
<g id="hero-bottom">
<path id="dots" fill-rule="evenodd" clip-rule="evenodd" d="M538 21C538 18.2386 540.239 16 543 16C545.761 16 548 18.2386 548 21C548 23.7614 545.761 26 543 26C540.239 26 538 23.7614 538 21ZM537 48C537 44.6863 539.686 42 543 42C546.314 42 549 44.6863 549 48C549 51.3137 546.314 54 543 54C539.686 54 537 51.3137 537 48ZM543 70C539.134 70 536 73.134 536 77C536 80.866 539.134 84 543 84C546.866 84 550 80.866 550 77C550 73.134 546.866 70 543 70ZM452 116C452 112.134 455.134 109 459 109C462.866 109 466 112.134 466 116C466 119.866 462.866 123 459 123C455.134 123 452 119.866 452 116ZM570 161C570 157.134 573.134 154 577 154C580.866 154 584 157.134 584 161C584 164.866 580.866 168 577 168C573.134 168 570 164.866 570 161ZM536 223C536 219.134 539.134 216 543 216C546.866 216 550 219.134 550 223C550 226.866 546.866 230 543 230C539.134 230 536 226.866 536 223ZM548 390C544.134 390 541 393.134 541 397C541 400.866 544.134 404 548 404C551.866 404 555 400.866 555 397C555 393.134 551.866 390 548 390ZM85 240C85 236.134 88.134 233 92 233C95.866 233 99 236.134 99 240C99 243.866 95.866 247 92 247C88.134 247 85 243.866 85 240ZM60 267C56.134 267 53 270.134 53 274C53 277.866 56.134 281 60 281C63.866 281 67 277.866 67 274C67 270.134 63.866 267 60 267ZM205 562C205 558.134 208.134 555 212 555C215.866 555 219 558.134 219 562C219 565.866 215.866 569 212 569C208.134 569 205 565.866 205 562ZM170.5 491C165.253 491 161 495.253 161 500.5C161 505.747 165.253 510 170.5 510C175.747 510 180 505.747 180 500.5C180 495.253 175.747 491 170.5 491ZM453 87C453 83.6863 455.686 81 459 81C462.314 81 465 83.6863 465 87C465 90.3137 462.314 93 459 93C455.686 93 453 90.3137 453 87ZM577 126C573.686 126 571 128.686 571 132C571 135.314 573.686 138 577 138C580.314 138 583 135.314 583 132C583 128.686 580.314 126 577 126ZM543 188C539.686 188 537 190.686 537 194C537 197.314 539.686 200 543 200C546.314 200 549 197.314 549 194C549 190.686 546.314 188 543 188ZM542 368C542 364.686 544.686 362 548 362C551.314 362 554 364.686 554 368C554 371.314 551.314 374 548 374C544.686 374 542 371.314 542 368ZM92 205C88.6863 205 86 207.686 86 211C86 214.314 88.6863 217 92 217C95.3137 217 98 214.314 98 211C98 207.686 95.3137 205 92 205ZM54 245C54 241.686 56.6863 239 60 239C63.3137 239 66 241.686 66 245C66 248.314 63.3137 251 60 251C56.6863 251 54 248.314 54 245ZM212 527C208.686 527 206 529.686 206 533C206 536.314 208.686 539 212 539C215.314 539 218 536.314 218 533C218 529.686 215.314 527 212 527ZM162 461.5C162 456.806 165.806 453 170.5 453C175.194 453 179 456.806 179 461.5C179 466.194 175.194 470 170.5 470C165.806 470 162 466.194 162 461.5ZM459 151C462.314 151 465 148.314 465 145C465 141.686 462.314 139 459 139C455.686 139 453 141.686 453 145C453 148.314 455.686 151 459 151ZM583 190C583 193.314 580.314 196 577 196C573.686 196 571 193.314 571 190C571 186.686 573.686 184 577 184C580.314 184 583 186.686 583 190ZM543 112C546.314 112 549 109.314 549 106C549 102.686 546.314 100 543 100C539.686 100 537 102.686 537 106C537 109.314 539.686 112 543 112ZM549 252C549 255.314 546.314 258 543 258C539.686 258 537 255.314 537 252C537 248.686 539.686 246 543 246C546.314 246 549 248.686 549 252ZM548 432C551.314 432 554 429.314 554 426C554 422.686 551.314 420 548 420C544.686 420 542 422.686 542 426C542 429.314 544.686 432 548 432ZM98 269C98 272.314 95.3137 275 92 275C88.6863 275 86 272.314 86 269C86 265.686 88.6863 263 92 263C95.3137 263 98 265.686 98 269ZM60 309C63.3137 309 66 306.314 66 303C66 299.686 63.3137 297 60 297C56.6863 297 54 299.686 54 303C54 306.314 56.6863 309 60 309ZM218 591C218 594.314 215.314 597 212 597C208.686 597 206 594.314 206 591C206 587.686 208.686 585 212 585C215.314 585 218 587.686 218 591ZM171 548C175.418 548 179 544.418 179 540C179 535.582 175.418 532 171 532H170C165.582 532 162 535.582 162 540C162 544.418 165.582 548 170 548H171ZM454 60C454 57.2386 456.239 55 459 55C461.761 55 464 57.2386 464 60C464 62.7614 461.761 65 459 65C456.239 65 454 62.7614 454 60ZM577 100C574.239 100 572 102.239 572 105C572 107.761 574.239 110 577 110C579.761 110 582 107.761 582 105C582 102.239 579.761 100 577 100ZM543 162C540.239 162 538 164.239 538 167C538 169.761 540.239 172 543 172C545.761 172 548 169.761 548 167C548 164.239 545.761 162 543 162ZM543 341C543 338.239 545.239 336 548 336C550.761 336 553 338.239 553 341C553 343.761 550.761 346 548 346C545.239 346 543 343.761 543 341ZM92 179C89.2386 179 87 181.239 87 184C87 186.761 89.2386 189 92 189C94.7614 189 97 186.761 97 184C97 181.239 94.7614 179 92 179ZM55 218C55 215.239 57.2386 213 60 213C62.7614 213 65 215.239 65 218C65 220.761 62.7614 223 60 223C57.2386 223 55 220.761 55 218ZM212 501C209.239 501 207 503.239 207 506C207 508.761 209.239 511 212 511C214.761 511 217 508.761 217 506C217 503.239 214.761 501 212 501ZM164 424.5C164 420.91 166.91 418 170.5 418C174.09 418 177 420.91 177 424.5V425.5C177 429.09 174.09 432 170.5 432C166.91 432 164 429.09 164 425.5V424.5ZM459 177C461.761 177 464 174.761 464 172C464 169.239 461.761 167 459 167C456.239 167 454 169.239 454 172C454 174.761 456.239 177 459 177ZM582 217C582 219.761 579.761 222 577 222C574.239 222 572 219.761 572 217C572 214.239 574.239 212 577 212C579.761 212 582 214.239 582 217ZM543 138C545.761 138 548 135.761 548 133C548 130.239 545.761 128 543 128C540.239 128 538 130.239 538 133C538 135.761 540.239 138 543 138ZM548 279C548 281.761 545.761 284 543 284C540.239 284 538 281.761 538 279C538 276.239 540.239 274 543 274C545.761 274 548 276.239 548 279ZM548 458C550.761 458 553 455.761 553 453C553 450.239 550.761 448 548 448C545.239 448 543 450.239 543 453C543 455.761 545.239 458 548 458ZM97 296C97 298.761 94.7614 301 92 301C89.2386 301 87 298.761 87 296C87 293.239 89.2386 291 92 291C94.7614 291 97 293.239 97 296ZM60 335C62.7614 335 65 332.761 65 330C65 327.239 62.7614 325 60 325C57.2386 325 55 327.239 55 330C55 332.761 57.2386 335 60 335ZM217 618C217 620.761 214.761 623 212 623C209.239 623 207 620.761 207 618C207 615.239 209.239 613 212 613C214.761 613 217 615.239 217 618ZM170.5 584C174.09 584 177 581.09 177 577.5V576.5C177 572.91 174.09 570 170.5 570C166.91 570 164 572.91 164 576.5V577.5C164 581.09 166.91 584 170.5 584Z" fill="#C4C4C4"/>
<rect id="elipse" x="134" y="85" width="29" height="94" rx="14.5" stroke="black" stroke-width="4"/>
</g>
</svg>
