<svg id="logo" data-name="logo" xmlns="http://www.w3.org/2000/svg" viewBox="0 0 560.3 145.77"><defs><style>.cls-1{fill:#fff;}</style></defs><path class="cls-1" d="M135.14,2.53h22.4V124.68h36.85V145H135.14Z" transform="translate(-2.98 -0.9)"/><path class="cls-1" d="M202.32,36.74c0-22.81,12-35.84,34-35.84s34,13,34,35.84v74.1c0,22.8-12,35.83-34,35.83s-34-13-34-35.83Zm22.4,75.52c0,10.18,4.48,14,11.6,14s11.61-3.87,11.61-14V35.31c0-10.18-4.48-14-11.61-14s-11.6,3.87-11.6,14.05Z" transform="translate(-2.98 -0.9)"/><path class="cls-1" d="M318.36,65.64h31.35v45.2c0,22.8-11.4,35.83-33.38,35.83s-33.39-13-33.39-35.83V36.74C282.94,13.93,294.34.9,316.33.9s33.38,13,33.38,35.84V50.58H328.54V35.31c0-10.18-4.48-14-11.6-14s-11.61,3.87-11.61,14.05v77c0,10.18,4.48,13.85,11.61,13.85s11.6-3.67,11.6-13.85V86H318.36Z" transform="translate(-2.98 -0.9)"/><path class="cls-1" d="M362.34,36.74c0-22.81,12-35.84,34-35.84s34,13,34,35.84v74.1c0,22.8-12,35.83-34,35.83s-34-13-34-35.83Zm22.39,75.52c0,10.18,4.48,14,11.6,14s11.61-3.87,11.61-14V35.31c0-10.18-4.48-14-11.61-14s-11.6,3.87-11.6,14.05Z" transform="translate(-2.98 -0.9)"/><path class="cls-1" d="M449.45,4.2h6.75V47.13h-6.75Z" transform="translate(-2.98 -0.9)"/><path class="cls-1" d="M477.36,47.13h-6.75V4.2h6.75V22.6H485V4.2h6.87V47.13H485V28.73h-7.66Z" transform="translate(-2.98 -0.9)"/><path class="cls-1" d="M518.63,47.13h-6.81l-1.16-7.79h-8.28l-1.17,7.79H495L501.89,4.2h9.87ZM503.24,33.52h6.5l-3.25-21.71Z" transform="translate(-2.98 -0.9)"/><path class="cls-1" d="M530.41,39.22l5.15-35h6.19l-6.62,42.93H525.07L518.45,4.2h6.81Z" transform="translate(-2.98 -0.9)"/><path class="cls-1" d="M551.63,22.3h9.26v6.13h-9.26V41h11.65v6.13h-18.4V4.2h18.4v6.14H551.63Z" transform="translate(-2.98 -0.9)"/><path class="cls-1" d="M463.74,88.68l4.6-30.48h9.38v42.93h-6.37V70.35l-4.66,30.78h-6.38l-5-30.35v30.35h-5.89V58.2h9.38Z" transform="translate(-2.98 -0.9)"/><path class="cls-1" d="M504.46,101.13h-6.8l-1.17-7.79h-8.28l-1.16,7.79h-6.2l6.87-42.93h9.88ZM489.07,87.52h6.5l-3.25-21.71Z" transform="translate(-2.98 -0.9)"/><path class="cls-1" d="M507.59,58.2h10.67c6.75,0,10.06,3.75,10.06,10.61V90.52c0,6.87-3.31,10.61-10.06,10.61H507.59Zm6.75,6.14V95h3.8c2.15,0,3.44-1.1,3.44-4.17V68.51c0-3.07-1.29-4.17-3.44-4.17Z" transform="translate(-2.98 -0.9)"/><path class="cls-1" d="M539.36,76.3h9.26v6.13h-9.26V95H551v6.13H532.62V58.2H551v6.14H539.36Z" transform="translate(-2.98 -0.9)"/><path class="cls-1" d="M49.9,48.2H70.75v6.14h-7V91.13H57V54.34H49.9Z" transform="translate(-2.98 -0.9)"/><path class="cls-1" d="M80.44,91.13H73.7V48.2h6.74V66.6h7.67V48.2H95V91.13H88.11V72.73H80.44Z" transform="translate(-2.98 -0.9)"/><path class="cls-1" d="M106.63,66.3h9.26v6.13h-9.26V85h11.65v6.13H99.88V48.2h18.4v6.14H106.63Z" transform="translate(-2.98 -0.9)"/><path class="cls-1" d="M3,102.2H9.73V139h11.1v6.13H3Z" transform="translate(-2.98 -0.9)"/><path class="cls-1" d="M23.77,102.2h6.75v42.93H23.77Z" transform="translate(-2.98 -0.9)"/><path class="cls-1" d="M33.46,102.2H54.31v6.14H47.26v36.79H40.52V108.34H33.46Z" transform="translate(-2.98 -0.9)"/><path class="cls-1" d="M55.3,102.2H76.15v6.14H69.09v36.79H62.35V108.34H55.3Z" transform="translate(-2.98 -0.9)"/><path class="cls-1" d="M79.09,102.2h6.75V139h11.1v6.13H79.09Z" transform="translate(-2.98 -0.9)"/><path class="cls-1" d="M106.63,120.3h9.26v6.13h-9.26V139h11.65v6.13H99.88V102.2h18.4v6.14H106.63Z" transform="translate(-2.98 -0.9)"/></svg>